<svg xmlns="http://www.w3.org/2000/svg" width="94.32" height="18.004" viewBox="0 0 94.32 18.004">
    <path d="M-304.04 37.153a.3.3 0 0 1-.253-.141l-3.914-6.319a.879.879 0 0 0-.751-.416h-2.229a.258.258 0 0 0-.258.258v6.321a.3.3 0 0 1-.3.3h-1.211a.292.292 0 0 1-.291-.291v-14.7a.3.3 0 0 1 .3-.3h5.031c4.373 0 4.845 2.941 4.845 4.206a3.66 3.66 0 0 1-2.908 3.943c-.114.029-.372.086-.317.173.1.164.226.37.266.433l3.836 6.075a.3.3 0 0 1-.251.457zm-7.146-13.753a.258.258 0 0 0-.258.258v4.826a.258.258 0 0 0 .258.258h2.678c.868 0 3.507 0 3.507-2.67s-2.64-2.671-3.507-2.671z" transform="translate(382.646 -19.627)"/>
    <path d="M-291.534 37.153a.262.262 0 0 1-.214-.11l-3.951-5.494a.43.43 0 0 0-.35-.179.43.43 0 0 0-.351.18l-3.954 5.5a.252.252 0 0 1-.2.106h-1.617a.249.249 0 0 1-.2-.394l5.03-7a.431.431 0 0 0 0-.505l-5.016-6.979a.261.261 0 0 1 .212-.413h1.588a.266.266 0 0 1 .215.11l3.95 5.492a.433.433 0 0 0 .351.18.432.432 0 0 0 .35-.18l3.953-5.5a.249.249 0 0 1 .2-.1h1.606a.256.256 0 0 1 .207.4l-5.021 6.987a.434.434 0 0 0 0 .505l5.022 6.991a.253.253 0 0 1-.2.4z" transform="translate(384.001 -19.627)"/>
    <g>
        <path d="M-374.616 23.292h4.392a.3.3 0 0 1 .3.3V37.1a.3.3 0 0 0 .3.3h3.254a.3.3 0 0 0 .3-.3V23.6a.3.3 0 0 1 .3-.3h4.393a.3.3 0 0 0 .3-.3v-2.82a.3.3 0 0 0-.3-.3h-13.254a.3.3 0 0 0-.3.3v2.809a.3.3 0 0 0 .315.303z" transform="translate(374.92 -19.876)"/>
        <path d="M-346.779 25.2c0-4.085-3.02-5.322-6.61-5.322h-6.479a.3.3 0 0 0-.3.3V37.1a.3.3 0 0 0 .3.3h3.255a.3.3 0 0 0 .3-.3v-6.4a.3.3 0 0 1 .3-.3h1a1.065 1.065 0 0 1 .883.534l4 6.308a.3.3 0 0 0 .269.163h3.852a.3.3 0 0 0 .26-.459l-4.242-5.981a3.074 3.074 0 0 0-.447-.492 1.775 1.775 0 0 0-.513-.272c-.075-.023 0-.05 0-.05l.527-.177a4.752 4.752 0 0 0 3.645-4.774zm-7.253 1.93h-1.974a.3.3 0 0 1-.3-.3v-3.384a.3.3 0 0 1 .3-.3h2.221c1.411 0 3 .272 3 2.03-.005 1.904-1.837 1.952-3.248 1.952z" transform="translate(376.767 -19.876)"/>
        <path d="M-334.516 30.528a3.566 3.566 0 0 1-3.515 3.788 3.57 3.57 0 0 1-3.539-3.788V20.172a.3.3 0 0 0-.3-.3h-3.27a.3.3 0 0 0-.3.3v10.505c0 4.133 2.525 7.2 7.4 7.2 4.852 0 7.377-3.07 7.377-7.2V20.172a.3.3 0 0 0-.3-.3h-3.27a.3.3 0 0 0-.3.3z" transform="translate(378.614 -19.876)"/>
        <path d="M-324.835 30.272h6.761a.3.3 0 0 0 .3-.3v-2.963a.3.3 0 0 0-.3-.3h-6.761a.3.3 0 0 1-.3-.3v-2.667a.3.3 0 0 1 .3-.3h7.444a.3.3 0 0 0 .3-.3v-2.964a.3.3 0 0 0-.3-.3h-11.3a.3.3 0 0 0-.3.3V37.1a.3.3 0 0 0 .3.3h11.75a.3.3 0 0 0 .3-.3v-2.962a.3.3 0 0 0-.3-.3h-7.889a.3.3 0 0 1-.3-.3v-2.964a.3.3 0 0 1 .295-.302z" transform="translate(380.672 -19.876)"/>
    </g>
</svg>
